<svg xmlns="http://www.w3.org/2000/svg" viewBox="0 0 757.97 253.98"><defs><style>.cls-1{fill:#fff;}</style></defs><g id="Layer_2" data-name="Layer 2"><g id="Layer_1-2" data-name="Layer 1"><path class="cls-1" d="M639.14,193.2s9.39-33.26,13.31-42.52,12.26-21.91,12.26-21.91-.79-11.74-2.61-12.66-3.26,2.09-4.18,7.44-14.34,29-20.08,49.3-6.52,20.48-6.52,20.48l-18.79,2.87s6.13-25.43,10.83-36.78,14.74-23.09,14.74-23.09.39-12.26-1-13.69-4.7,3.39-4.7,5.21-23.48,40.31-26.61,68.87l-3.52.13s0-7.69-1.31-10.95S576,145.59,552.79,129.55s-51.65-39-101.73-40.83-54.79-2.21-54.79-2.21,14.61-30.13,15.39-49.57S414.79,3.29,406.84.29s-30.39,18.39-30.39,18.39-27,25.7-36.39,38.35-20.22,32-20.22,32L288.27,92.9s10.05-55.83,9.65-57S291.27,30,289.71,35s-12.92,58.31-12.92,58.31-84.52,12.91-103.43,22.82c-11.09-15.26-23.22-40-63.39-44.87S32,93.55,32,93.55,4.45,114.42,1.71,122.24-1,157.59,5.88,177.68s24.78,51.65,68.61,65.09,94.7-.13,102.13-3,42.65-13.7,44-14.87,7.95,0,7.95,0,7.31,10.17,15,8.74,9.13-7.31,9.13-7.31l35.61.52s1.44,21.66,20,18.79,35-19.44,35.74-20.09,51.78-2.74,51.78-2.74,2.22,11.09,13.57,8.35,16-10.44,16-10.44l132.52-13.3s9.39,8.22,19.44,6.52,15.65-8.61,18.52-10.7l6.78-.13s-10.17,43-9.65,50.87a5.39,5.39,0,0,0,4.56-3.52c1.05-3.26,11.74-48.91,12.39-49.17s19.31-.91,19.31-.91l-17.09,43.69s2,5,9.92-9.91,14.34-34.7,14.34-34.7l117.39-9.91s4.05-1.44,4.18-4.57S639.14,193.2,639.14,193.2ZM373.32,30.68c23.6-21.52,29.34-27.52,32.74-26s5.34,15.79,2.21,32.09-17.48,51.13-17.48,51.13l-62,.13S349.71,52.2,373.32,30.68ZM325.19,95.11s50.34-2.6,62.08-2.34c-17.48,22.43-52.69,65-91,85.3C300.66,153.55,314.23,113.11,325.19,95.11ZM124.32,241.46c-45.92-.52-76.18-6.26-101.48-44.61s-14.09-78.26-5-88.43,71-38.87,103.57-30,46.17,39.13,46.17,39.13-57.91,22.17-72.78,40.17-4.18,36,14.35,45.39,65.47,20.61,98.34,19.57C207.53,222.68,170.23,242,124.32,241.46Zm5.74-35.22c-27.14-9.39-47.74-25-27.14-46.17s68.87-36.26,68.87-36.26L223.45,218S157.19,215.64,130.06,206.24Zm106.69,19.44,7.57.39S241.45,232.46,236.75,225.68Zm12.07-5.61-14.48.2L251,211.66Zm-19.5-4.56L177,122.9c62.09-20.61,98-22.18,98-22.18.13,7.31-8.06,38.74-16,59.09s-16.92,27.29-16.92,27.29,5.57,6.17,7.33,6S258,179.18,258,179.18l2.09-1.63-6,27.13Zm58.24,4.56c-11.74.2-31.11-.39-31.11-.39L259.38,207l28.18-16.82S286.58,216.16,287.56,220.07ZM262.84,199.2s10.17-58.17,17-76.43,6.53-24,6.53-24,24-2.87,30.26-2.87c-6.26,14.61-24.26,51.91-27.92,87.13Zm47.08,40c-8.6,2-14.73-2.86-15.65-12.78l39.52-.26S318.53,237.29,309.92,239.24Zm86.48-23-43,2.48s42.52-52.18,48.39-71.09C401.62,169.46,396.4,216.29,396.4,216.29Zm5.87,6,12-.52S407.62,229.85,402.27,222.29Zm30.52-9.13c14-13.7,33.13-59.48,33.13-59.48s-6.52,34-6.39,46.43,17.22,8.09,25.31.53,23.22-31.31,23.22-31.31c-3.4,34.83,11.08,34.57,11.08,34.57S460.45,211.72,432.79,213.16ZM531,202.33s14.22-7.69,17.48-18c0,0,2,12.39,5.61,16C554.1,200.38,543,204.55,531,202.33Zm37.31,3.13,14.34-.52S578.23,211.85,568.32,205.46Zm23.87-7.11c-2.94,0-31.5,2-31.5,2s-6.66-18.59-5.87-24.07,4.5-18.78,2.54-20.34-5.87-2.35-6.85,3.13-5.67,24.26-11.15,29.93-19.17,15.26-22.3,6.07-1.57-30.72-1.57-30.72,2.54-12.52-4.11-11.74-13.5,21.72-13.5,21.72-9.78,17.22-17.22,23.09-15.06,6.84-14.28-.2,8.81-51.26,6.07-56.94-8.22,1.77-11.35,9.4-16.24,37.56-20.74,43.63-16.44,21.13-16.44,21.13l-21.32,1s6.65-41.87,7.63-57.53-4.5-24.06-12.91-16.24-21.72,42.85-35,56.55-19.56,21.52-19.56,21.52H294.21s-3.72-21.33-.39-33.85c0,0,50.67-30.72,73-57.52s25.63-35.8,25.63-35.8,56.74-2.16,92.94,7.43S555,137.7,560.69,143.18s34.43,43,34.63,47S595.12,198.35,592.19,198.35Z"/></g></g></svg>